# xmcd
#
# Track frame offsets:
#	150
#	20837
#	40513
#	61979
#	82944
#	108845
#	128129
#	145908
#	167357
#	190070
#	214087
#	239017
#	285980
#
# Disc length: 4195 seconds
#
# Revision: 1
# Processed by: cddbd v1.5.1PL0 Copyright (c) Steve Scherf et al.
# Submitted via: audiograbber 1.80
#
DISCID=aa10610d
DTITLE=Konpa Kreyol - Gen Gen Geng
DYEAR=1900
DGENRE=
TTITLE0=Gen Gen Geng
TTITLE1=Deye Lakay
TTITLE2=Destin
TTITLE3=Telegramme
TTITLE4=Tou Nouvo Tou Bo
TTITLE5=Out
TTITLE6=Pou Ki Sa
TTITLE7=Pa et Ma
TTITLE8=Sansasyon Lanmou
TTITLE9=Sesame
TTITLE10=Sove Mwen
TTITLE11=Iyo Lo Lo (Carnaval 2002)
TTITLE12=Nou Mele (Carnaval 2004)
EXTD=
EXTT0=
EXTT1=
EXTT2=
EXTT3=
EXTT4=
EXTT5=
EXTT6=
EXTT7=
EXTT8=
EXTT9=
EXTT10=
EXTT11=
EXTT12=
PLAYORDER=
